<?xml version="1.0" standalone="no"?>
<!DOCTYPE svg PUBLIC "-//W3C//DTD SVG 20010904//EN"
 "http://www.w3.org/TR/2001/REC-SVG-20010904/DTD/svg10.dtd">
<svg version="1.0" xmlns="http://www.w3.org/2000/svg"
 width="149.000000pt" height="154.000000pt" viewBox="0 0 149.000000 154.000000"
 preserveAspectRatio="xMidYMid meet">

<g transform="translate(0.000000,154.000000) scale(0.100000,-0.100000)"
fill="#000000" stroke="none">
<path d="M675 1431 c-76 -34 -470 -264 -499 -290 -54 -49 -56 -65 -56 -381 0
-316 2 -332 56 -381 32 -28 445 -268 508 -294 26 -11 51 -14 76 -10 40 7 500
267 535 303 52 53 50 37 52 367 2 170 0 319 -3 331 -11 43 -57 77 -275 205
-315 185 -317 185 -394 150z m373 -408 l3 -83 -201 0 -200 0 0 -40 0 -40 144
0 c203 0 205 -7 51 -135 -37 -31 -48 -34 -115 -37 l-75 -3 -3 -52 -3 -53 201
0 201 0 -3 -82 -3 -83 -295 0 -295 0 -3 335 c-1 184 0 341 3 348 3 10 68 12
297 10 l293 -3 3 -82z"/>
</g>
</svg>
